<svg width="300" height="300" viewBox="0 0 300 300" fill="none" xmlns="http://www.w3.org/2000/svg">
<rect width="300" height="300" fill="#002342"/>
<mask id="mask0" mask-type="alpha" maskUnits="userSpaceOnUse" x="68" y="54" width="165" height="191">
<rect x="68" y="54" width="165" height="191" fill="#C4C4C4"/>
</mask>
<g mask="url(#mask0)">
<path d="M292.056 142.623H291.753C288.628 137.72 282.53 133.271 273.337 133.271C259.806 133.271 247.944 143.077 247.944 159.845C247.944 176.642 259.776 186.448 273.337 186.448C282.196 186.448 288.203 182.332 291.723 176.975H291.935V179.639C291.935 186.902 290.054 191.896 287.96 194.469C285.837 197.102 281.407 200.219 273.55 200.219C265.662 200.219 257.47 195.982 254.709 193.561L249.704 201.006C256.517 206.03 264.744 208.784 273.216 208.875C286.292 208.875 292.845 203.549 296.728 198.767C300.612 194.106 302.493 187.659 302.493 175.976V134.27H291.965L292.056 142.623V142.623ZM275.552 177.762C264.782 177.762 258.805 169.893 258.805 159.845C258.805 149.857 264.782 141.836 275.552 141.836C286.413 141.836 292.299 149.857 292.299 159.845C292.299 169.863 286.413 177.762 275.552 177.762ZM122.372 106.607C138.209 116.595 143.397 121.589 143.033 126.34C135.539 119.016 115.334 117.049 115.334 117.049C115.152 125.553 130.898 133.574 130.898 133.574C123.98 141.171 119.824 151.401 113.301 179.094L158.415 218.197L158.324 165.898L149.101 155.244L185.446 177.944C188.329 179.548 191.817 179.669 194.791 178.216C199.281 175.886 201.799 173.525 202.375 169.772C202.77 167.26 182.17 137.024 179.47 133.877C173.25 127.944 165.119 126.007 164.604 125.796C163.481 123.435 153.136 108.726 126.862 94.3191C99.0116 79.0651 106.657 58 106.657 58C98.9206 76.6438 99.6791 92.2912 122.372 106.577V106.607ZM180.683 147.587C178.069 147.225 175.599 146.173 173.53 144.54C171.46 142.906 169.866 140.75 168.912 138.295C177.589 139.385 180.683 147.587 180.683 147.587ZM165.514 83.726C155.238 81.9283 144.705 82.2061 134.538 84.5432L130.655 85.4209L133.871 87.7816C135.994 89.3555 138.391 91.0503 141.031 92.8058L141.607 93.1992L142.274 93.1084C154.853 91.3504 167.673 93.0873 179.326 98.1281C190.978 103.169 201.011 111.318 208.322 121.679C215.663 132.069 220.019 144.262 220.917 156.942C221.815 169.622 219.222 182.305 213.419 193.621C206.71 206.723 195.98 217.343 182.793 223.931C169.607 230.52 154.656 232.731 140.12 230.243C127.256 227.988 115.292 222.152 105.608 213.408C95.9244 204.663 88.9155 193.366 85.3896 180.819C81.8281 168.267 81.8737 154.969 85.5214 142.442C89.169 129.914 96.2718 118.662 106.02 109.967L107.264 108.816L106.232 107.485C105.013 105.874 103.869 104.207 102.804 102.491L101.681 100.675L100.073 102.067C86.5567 113.927 77.4609 130.001 74.2659 147.674C71.071 165.347 73.965 183.579 82.4771 199.402C90.9332 215.203 104.543 227.65 121.056 234.683C137.568 241.717 155.992 242.916 173.281 238.082C190.579 233.184 205.699 222.574 216.165 207.987C226.631 193.4 231.824 175.701 230.894 157.787C230.018 139.877 223.068 122.796 211.183 109.345C199.298 95.8938 183.184 86.871 165.484 83.7563L165.514 83.726ZM580 158.513C580 143.743 569.685 133.271 555.062 133.271C540.408 133.271 528.333 143.955 528.333 160.632C528.333 177.429 539.073 188.325 554.728 188.325C570.474 188.325 577.239 180.547 577.907 179.972L573.447 173.858C568.472 177.725 562.369 179.871 556.063 179.972C546.294 179.972 539.65 173.646 539.073 163.174H579.666C579.848 161.661 579.97 160.087 580 158.513V158.513ZM539.195 156.092C539.528 149.736 544.2 140.959 554.728 140.959C565.346 140.959 569.806 150.19 569.897 156.092H539.195ZM506.156 187.114H516.683V110.36H506.156V187.114ZM335.107 133.271C328.189 133.332 321.394 135.178 315.387 138.628L318.603 145.741C323.398 142.884 328.855 141.319 334.439 141.201C342.085 141.201 347.515 145.166 347.515 153.186V155.305L333.438 155.85C321.242 156.394 312.808 161.63 312.808 171.981C312.808 182.211 321.272 188.325 331.011 188.325C340.659 188.325 345.634 182.635 347.758 180.456L347.879 187.114H358.194V156.425C358.194 147.405 356.071 142.956 352.521 139.294C348.971 135.723 343.875 133.271 335.107 133.271V133.271ZM347.637 173.101C346.197 175.372 344.223 177.257 341.885 178.592C339.548 179.927 336.919 180.67 334.227 180.758C327.249 180.758 323.366 176.642 323.366 171.648C323.366 166.655 326.794 162.962 335.319 162.538L347.637 161.751V173.101V173.101ZM479.913 187.114H490.44V110.36H479.913V187.114ZM411.166 140.838V134.391H368.388V142.956H397.635L366.78 180.547V187.114H412.683V178.337H380.433L411.135 140.838H411.166ZM443.871 133.271C429.247 133.271 417.173 143.955 417.173 160.632C417.173 177.429 427.913 188.325 443.567 188.325C459.283 188.325 466.048 180.547 466.716 179.972L462.286 173.858C457.303 177.732 451.189 179.878 444.872 179.972C435.133 179.972 428.489 173.646 427.913 163.174H468.506C468.688 161.661 468.809 160.087 468.809 158.513C468.809 143.743 458.494 133.271 443.871 133.271V133.271ZM428.034 156.092C428.337 149.736 433.009 140.959 443.537 140.959C454.186 140.959 458.615 150.19 458.706 156.092H428.034Z" fill="#FCD214"/>
</g>
</svg>
